<svg width="16" height="18" viewBox="0 0 16 18" fill="none" xmlns="http://www.w3.org/2000/svg">
<path fill-rule="evenodd" clip-rule="evenodd" d="M14.1538 6.26662C14.498 6.29495 14.7547 6.59579 14.7272 6.93995C14.7222 6.99662 14.2705 12.5891 14.0105 14.935C13.8488 16.3908 12.8872 17.2766 11.4355 17.3033C10.3247 17.3225 9.253 17.3333 8.2055 17.3333C7.07633 17.3333 5.9755 17.3208 4.88633 17.2983C3.493 17.2708 2.52883 16.3675 2.37133 14.9408C2.10883 12.5741 1.65967 6.99579 1.6555 6.93995C1.62717 6.59579 1.88383 6.29412 2.228 6.26662C2.56717 6.25745 2.87383 6.49579 2.90133 6.83912C2.90399 6.87529 3.08762 9.15331 3.28772 11.4072L3.32791 11.857C3.42869 12.9773 3.53085 14.0538 3.61383 14.8033C3.703 15.6141 4.1405 16.0325 4.91217 16.0483C6.9955 16.0925 9.12133 16.095 11.413 16.0533C12.233 16.0375 12.6763 15.6275 12.768 14.7975C13.0263 12.4691 13.4763 6.89579 13.4813 6.83912C13.5088 6.49579 13.813 6.25579 14.1538 6.26662ZM9.9545 0.66687C10.7195 0.66687 11.392 1.1827 11.5895 1.92187L11.8012 2.9727C11.8696 3.31718 12.1719 3.56875 12.5219 3.57428L15.2567 3.57437C15.6017 3.57437 15.8817 3.85437 15.8817 4.19937C15.8817 4.54437 15.6017 4.82437 15.2567 4.82437L12.5463 4.82424C12.5421 4.82433 12.5379 4.82437 12.5337 4.82437L12.5133 4.82354L3.86802 4.82427C3.86129 4.82434 3.85457 4.82437 3.84783 4.82437L3.835 4.82354L1.125 4.82437C0.78 4.82437 0.5 4.54437 0.5 4.19937C0.5 3.85437 0.78 3.57437 1.125 3.57437L3.85917 3.57354L3.94335 3.56821C4.25692 3.52752 4.51753 3.28937 4.58117 2.9727L4.78367 1.95937C4.9895 1.1827 5.662 0.66687 6.427 0.66687H9.9545ZM9.9545 1.91687H6.427C6.227 1.91687 6.05117 2.05104 6.00033 2.24354L5.80617 3.21854C5.78149 3.34203 5.74556 3.46105 5.69957 3.57459H10.6822C10.6361 3.46105 10.6001 3.34203 10.5753 3.21854L10.3728 2.2052C10.3303 2.05104 10.1545 1.91687 9.9545 1.91687Z" fill="#EC3920"/>
</svg>
